<svg width="14" height="14" viewBox="0 0 14 14" fill="none" xmlns="http://www.w3.org/2000/svg">
<path fill-rule="evenodd" clip-rule="evenodd" d="M7 0.0905762C7.55229 0.0905762 8 0.538291 8 1.09058V5.17834L11.4634 2.97434C11.9294 2.67783 12.5475 2.81518 12.844 3.28113C13.1405 3.74707 13.0031 4.36515 12.5372 4.66166L8.86266 6.99999L12.5372 9.33832C13.0031 9.63483 13.1405 10.2529 12.844 10.7189C12.5475 11.1848 11.9294 11.3222 11.4634 11.0256L8 8.82165V12.9094C8 13.4617 7.55229 13.9094 7 13.9094C6.44772 13.9094 6 13.4617 6 12.9094V8.82169L2.53664 11.0256C2.07069 11.3222 1.45261 11.1848 1.1561 10.7189C0.85959 10.2529 0.996943 9.63483 1.46288 9.33832L5.1374 6.99999L1.46288 4.66166C0.996943 4.36515 0.85959 3.74707 1.1561 3.28113C1.45261 2.81518 2.07069 2.67783 2.53664 2.97434L6 5.1783V1.09058C6 0.538291 6.44772 0.0905762 7 0.0905762Z" fill="#30A0E5"/>
</svg>
