<svg width="90" height="18" viewBox="0 0 90 18" fill="none" xmlns="http://www.w3.org/2000/svg">
<path d="M0.814 10.928C0.814 9.68133 1.06333 8.58867 1.562 7.65C2.07533 6.69667 2.77933 5.96333 3.674 5.45C4.56867 4.93667 5.59533 4.68 6.754 4.68C8.22067 4.68 9.43067 5.032 10.384 5.736C11.352 6.42533 12.0047 7.41533 12.342 8.706H9.636C9.416 8.10467 9.064 7.63533 8.58 7.298C8.096 6.96067 7.48733 6.792 6.754 6.792C5.72733 6.792 4.906 7.15867 4.29 7.892C3.68867 8.61067 3.388 9.62267 3.388 10.928C3.388 12.2333 3.68867 13.2527 4.29 13.986C4.906 14.7193 5.72733 15.086 6.754 15.086C8.206 15.086 9.16667 14.448 9.636 13.172H12.342C11.99 14.404 11.33 15.3867 10.362 16.12C9.394 16.8387 8.19133 17.198 6.754 17.198C5.59533 17.198 4.56867 16.9413 3.674 16.428C2.77933 15.9 2.07533 15.1667 1.562 14.228C1.06333 13.2747 0.814 12.1747 0.814 10.928ZM14.0054 10.884C14.0054 9.66667 14.2547 8.58867 14.7534 7.65C15.2667 6.71133 15.9561 5.98533 16.8214 5.472C17.7014 4.944 18.6694 4.68 19.7254 4.68C20.6787 4.68 21.5074 4.87067 22.2114 5.252C22.9301 5.61867 23.5021 6.08067 23.9274 6.638V4.878H26.4574V17H23.9274V15.196C23.5021 15.768 22.9227 16.2447 22.1894 16.626C21.4561 17.0073 20.6201 17.198 19.6814 17.198C18.6401 17.198 17.6867 16.934 16.8214 16.406C15.9561 15.8633 15.2667 15.1153 14.7534 14.162C14.2547 13.194 14.0054 12.1013 14.0054 10.884ZM23.9274 10.928C23.9274 10.092 23.7514 9.366 23.3994 8.75C23.0621 8.134 22.6147 7.66467 22.0574 7.342C21.5001 7.01933 20.8987 6.858 20.2534 6.858C19.6081 6.858 19.0067 7.01933 18.4494 7.342C17.8921 7.65 17.4374 8.112 17.0854 8.728C16.7481 9.32933 16.5794 10.048 16.5794 10.884C16.5794 11.72 16.7481 12.4533 17.0854 13.084C17.4374 13.7147 17.8921 14.1987 18.4494 14.536C19.0214 14.8587 19.6227 15.02 20.2534 15.02C20.8987 15.02 21.5001 14.8587 22.0574 14.536C22.6147 14.2133 23.0621 13.744 23.3994 13.128C23.7514 12.4973 23.9274 11.764 23.9274 10.928ZM34.8336 6.924H32.5896V17H30.0596V6.924H28.6296V4.878H30.0596V4.02C30.0596 2.62667 30.4262 1.61467 31.1596 0.983999C31.9076 0.338666 33.0736 0.0159997 34.6576 0.0159997V2.106C33.8949 2.106 33.3596 2.25267 33.0516 2.546C32.7436 2.82467 32.5896 3.316 32.5896 4.02V4.878H34.8336V6.924ZM42.1383 6.924H39.8943V17H37.3643V6.924H35.9343V4.878H37.3643V4.02C37.3643 2.62667 37.7309 1.61467 38.4643 0.983999C39.2123 0.338666 40.3783 0.0159997 41.9623 0.0159997V2.106C41.1996 2.106 40.6643 2.25267 40.3563 2.546C40.0483 2.82467 39.8943 3.316 39.8943 4.02V4.878H42.1383V6.924ZM55.4709 10.642C55.4709 11.0967 55.4416 11.5073 55.3829 11.874H46.1209C46.1943 12.842 46.5536 13.6193 47.1989 14.206C47.8443 14.7927 48.6363 15.086 49.5749 15.086C50.9243 15.086 51.8776 14.5213 52.4349 13.392H55.1409C54.7743 14.5067 54.1069 15.4233 53.1389 16.142C52.1856 16.846 50.9976 17.198 49.5749 17.198C48.4163 17.198 47.3749 16.9413 46.4509 16.428C45.5416 15.9 44.8229 15.1667 44.2949 14.228C43.7816 13.2747 43.5249 12.1747 43.5249 10.928C43.5249 9.68133 43.7743 8.58867 44.2729 7.65C44.7863 6.69667 45.4976 5.96333 46.4069 5.45C47.3309 4.93667 48.3869 4.68 49.5749 4.68C50.7189 4.68 51.7383 4.92933 52.6329 5.428C53.5276 5.92667 54.2243 6.63067 54.7229 7.54C55.2216 8.43467 55.4709 9.46867 55.4709 10.642ZM52.8529 9.85C52.8383 8.926 52.5083 8.18533 51.8629 7.628C51.2176 7.07067 50.4183 6.792 49.4649 6.792C48.5996 6.792 47.8589 7.07067 47.2429 7.628C46.6269 8.17067 46.2603 8.91133 46.1429 9.85H52.8529ZM59.2151 3.272C58.7604 3.272 58.3791 3.118 58.0711 2.81C57.7631 2.502 57.6091 2.12067 57.6091 1.666C57.6091 1.21133 57.7631 0.829999 58.0711 0.522C58.3791 0.213999 58.7604 0.0599991 59.2151 0.0599991C59.6551 0.0599991 60.0291 0.213999 60.3371 0.522C60.6451 0.829999 60.7991 1.21133 60.7991 1.666C60.7991 2.12067 60.6451 2.502 60.3371 2.81C60.0291 3.118 59.6551 3.272 59.2151 3.272ZM60.4471 4.878V17H57.9391V4.878H60.4471ZM69.8558 4.68C70.8092 4.68 71.6598 4.878 72.4078 5.274C73.1705 5.67 73.7645 6.25667 74.1898 7.034C74.6152 7.81133 74.8278 8.75 74.8278 9.85V17H72.3418V10.224C72.3418 9.13867 72.0705 8.31 71.5278 7.738C70.9852 7.15133 70.2445 6.858 69.3058 6.858C68.3672 6.858 67.6192 7.15133 67.0618 7.738C66.5192 8.31 66.2478 9.13867 66.2478 10.224V17H63.7398V4.878H66.2478V6.264C66.6585 5.76533 67.1792 5.37667 67.8098 5.098C68.4552 4.81933 69.1372 4.68 69.8558 4.68ZM89.137 10.642C89.137 11.0967 89.1076 11.5073 89.049 11.874H79.787C79.8603 12.842 80.2196 13.6193 80.865 14.206C81.5103 14.7927 82.3023 15.086 83.241 15.086C84.5903 15.086 85.5436 14.5213 86.101 13.392H88.807C88.4403 14.5067 87.773 15.4233 86.805 16.142C85.8516 16.846 84.6636 17.198 83.241 17.198C82.0823 17.198 81.041 16.9413 80.117 16.428C79.2076 15.9 78.489 15.1667 77.961 14.228C77.4476 13.2747 77.191 12.1747 77.191 10.928C77.191 9.68133 77.4403 8.58867 77.939 7.65C78.4523 6.69667 79.1636 5.96333 80.073 5.45C80.997 4.93667 82.053 4.68 83.241 4.68C84.385 4.68 85.4043 4.92933 86.299 5.428C87.1936 5.92667 87.8903 6.63067 88.389 7.54C88.8876 8.43467 89.137 9.46867 89.137 10.642ZM86.519 9.85C86.5043 8.926 86.1743 8.18533 85.529 7.628C84.8836 7.07067 84.0843 6.792 83.131 6.792C82.2656 6.792 81.525 7.07067 80.909 7.628C80.293 8.17067 79.9263 8.91133 79.809 9.85H86.519Z" fill="black"/>
</svg>
