<?xml version="1.0" encoding="utf-8"?>
<!-- Uploaded to: SVG Repo, www.svgrepo.com, Generator: SVG Repo Mixer Tools -->
<svg width="800px" height="800px" viewBox="-39.85 0 432 432" xmlns="http://www.w3.org/2000/svg" xmlns:xlink="http://www.w3.org/1999/xlink">
  <defs>
    <clipPath id="clip-coffee">
      <rect width="352.296" height="432"/>
    </clipPath>
  </defs>
  <g id="coffee" clip-path="url(#clip-coffee)">
    <rect width="352.296" height="432" fill="#ffffff"/>
    <g id="office_lifestyle_1" data-name="office lifestyle 1">
      <g id="Group_31" data-name="Group 31">
        <rect id="Rectangle_11" data-name="Rectangle 11" width="349.258" height="428.995" transform="translate(1.519 1.502)" fill="#fff28b"/>
        <path id="Path_481" data-name="Path 481" d="M1.519,0H350.777a1.5,1.5,0,0,1,1.5,1.5V430.5a1.5,1.5,0,0,1-1.5,1.5H1.519a1.5,1.5,0,0,1-1.5-1.5V1.5A1.5,1.5,0,0,1,1.519,0ZM349.275,3.005H3.021v425.99H349.275Z" fill="#1a1818" fill-rule="evenodd"/>
        <path id="Path_482" data-name="Path 482" d="M1.519,429.618l294.55-135.93,54.709,34.381V430.5H1.519Z" fill="#f197ab" fill-rule="evenodd"/>
        <path id="Path_483" data-name="Path 483" d="M.981,428.221,295.443,292.332a1.494,1.494,0,0,1,1.478.129l54.652,34.346a1.493,1.493,0,0,1,.7,1.262h0V430.5a1.5,1.5,0,0,1-1.5,1.5H1.519a1.5,1.5,0,0,1-1.5-1.5v-.879a1.5,1.5,0,0,1,.959-1.4Zm294.98-132.838L6.422,429H349.281V328.891Z" fill="#1a1818" fill-rule="evenodd"/>
        <path id="Path_484" data-name="Path 484" d="M136.737,316.1l17.292-6.966,44.753,0,17.372,4.512-1.6,46.643-3.515,28.376-8.975,15.26-25.7,5.12-24.5-4.323-11.289-17.882-1.875-16.6-24.3-26.279-1.685-19.7,11.53-10.086,12.491,1.922Zm-1.313,9.847-8.295-1.681-4.722,4.642,1.119,10.49,13.209,15.129Z" fill="#57c5e6" fill-rule="evenodd"/>
        <path id="Path_485" data-name="Path 485" d="M136.564,314.564l16.91-6.811a1.475,1.475,0,0,1,.633-.106l44.675,0a1.485,1.485,0,0,1,.374.047h0l17.373,4.511a1.493,1.493,0,0,1,1.116,1.525l-1.6,46.609c0,.046-.005.09-.01.134h0l-3.514,28.376a1.485,1.485,0,0,1-.262.68l-8.913,15.154a1.486,1.486,0,0,1-.995.708v0l-25.7,5.12a1.5,1.5,0,0,1-.608-.005L151.61,406.2a1.493,1.493,0,0,1-1.054-.755l-11.241-17.806a1.483,1.483,0,0,1-.22-.632h0l-1.821-16.12-23.964-25.914a1.486,1.486,0,0,1-.391-.889h-.007l-1.685-19.7a1.5,1.5,0,0,1,.6-1.321l11.443-10.011a1.488,1.488,0,0,1,1.2-.352v0l12.1,1.861Zm17.759-3.935-16.943,6.825a1.49,1.49,0,0,1-.865.13L124.7,315.765l-10.431,9.125,1.578,18.447,23.869,25.81a1.484,1.484,0,0,1,.47.932l1.837,16.262,10.75,17.029,23.571,4.159,24.774-4.936,8.47-14.4,3.476-28.063,1.557-45.333-16.035-4.164-44.265,0Zm-17.408,15.258h0a1.493,1.493,0,0,0-1.2-1.4l-8.221-1.666a1.492,1.492,0,0,0-1.413.383l-4.684,4.605a1.489,1.489,0,0,0-.477,1.259l1.119,10.49h0a1.49,1.49,0,0,0,.361.825l13.174,15.087a1.492,1.492,0,0,0,2.649-1.006l-1.311-28.579Zm-1.867,24.444-1.061-23.15-6.376-1.292-3.642,3.581.992,9.308Z" fill="#1a1818" fill-rule="evenodd"/>
        <path id="Path_486" data-name="Path 486" d="M160.784,148.424l24.691,26.311,10.272,57.228-20.5-50.633L145.672,151.2,167.057,94.03Z" fill="#ffffff" fill-rule="evenodd"/>
        <path id="Path_487" data-name="Path 487" d="M162.351,147.907l24.215,25.8a1.487,1.487,0,0,1,.394.841L197.218,231.7a1.495,1.495,0,0,1-2.857.825l0,0-20.39-50.364-29.362-29.911a1.5,1.5,0,0,1-.308-1.641l21.358-57.1a1.495,1.495,0,0,1,2.886.691h0l-6.2,53.707Zm21.732,27.532-24.348-25.945a1.5,1.5,0,0,1-.44-1.24l4.87-42.226-16.759,44.8,28.846,29.385a1.486,1.486,0,0,1,.385.55l15.094,37.284Z" fill="#1a1818" fill-rule="evenodd"/>
        <path id="Path_488" data-name="Path 488" d="M191.907,110.519l.022-29.136,10.66,30.243-9.357,26.117,3.743,28.428L180.5,138.389Z" fill="#ffffff" fill-rule="evenodd"/>
        <path id="Path_489" data-name="Path 489" d="M190.416,110.228l.022-28.845a1.491,1.491,0,0,1,2.9-.5h0L204,111.129a1.489,1.489,0,0,1,0,1h0l-9.238,25.786,3.7,28.063a1.493,1.493,0,0,1-2.765.952h0L179.215,139.15a1.5,1.5,0,0,1-.05-1.43l11.251-27.492Zm3-20.138-.015,20.429h0a1.482,1.482,0,0,1-.11.561l-11.124,27.182,12.382,20.88-2.778-21.1a1.491,1.491,0,0,1,.056-.807L201,111.619Z" fill="#1a1818" fill-rule="evenodd"/>
        <path id="Path_490" data-name="Path 490" d="M170.583,53.842,179.5,82.676l2.4-27.347,9.092-30.1Z" fill="#ffffff" fill-rule="evenodd"/>
        <path id="Path_491" data-name="Path 491" d="M172.233,54.109l6.435,20.818L180.4,55.2a1.489,1.489,0,0,1,.066-.329l6.449-21.346L172.233,54.109Zm5.831,29.007-8.9-28.812a1.492,1.492,0,0,1,.2-1.33L189.7,24.454a1.5,1.5,0,0,1,2.722,1.213l-9.048,29.947-2.386,27.191h0a1.5,1.5,0,0,1-2.924.311Z" fill="#1a1818" fill-rule="evenodd"/>
        <path id="Path_492" data-name="Path 492" d="M152.843,309.278l-16.2,6.811,17.739,6.462,41.338-.072,20.325-8.881L198.434,309.4Z" fill="#1a1818" fill-rule="evenodd"/>
        <path id="Path_493" data-name="Path 493" d="M153.142,310.77l-12.413,5.218,13.922,5.071,40.754-.071,15.951-6.97-13.123-3.124-45.091-.124Zm-17.077,3.945,16.183-6.8a1.49,1.49,0,0,1,.6-.124l45.464.126a1.51,1.51,0,0,1,.471.035l17.614,4.193v0a1.492,1.492,0,0,1,.252,2.82l-20.325,8.882h0a1.5,1.5,0,0,1-.6.123l-41.258.072a1.468,1.468,0,0,1-.588-.088l-17.739-6.461v0a1.491,1.491,0,0,1-.071-2.775Z" fill="#1a1818" fill-rule="evenodd"/>
        <path id="Path_494" data-name="Path 494" d="M191.965,297.621l13.9-49.21L180.017,293.3l1.7,27.348,11.685-.217Z" fill="#ffffff" fill-rule="evenodd"/>
        <path id="Path_495" data-name="Path 495" d="M190.528,297.239,201.2,259.463l-19.664,34.151,1.6,25.6,8.7-.161L190.475,297.7a1.326,1.326,0,0,1,.053-.464Zm16.778-48.471L193.47,297.762l1.426,22.584h0l0,.055a1.445,1.445,0,0,1-1.462,1.428l-11.611.216H181.8a1.462,1.462,0,0,1-1.572-1.324l-1.7-27.308a1.327,1.327,0,0,1,.173-.782l25.845-44.886a1.532,1.532,0,0,1,1.7-.692A1.4,1.4,0,0,1,207.306,248.768Z" fill="#1a1818" fill-rule="evenodd"/>
        <path id="Path_496" data-name="Path 496" d="M160.089,294.482l6.495,26.692-12.115.268-8.617-27.407,23.6-51.391L149.961,183.2l34.928,59.345Z" fill="#ffffff" fill-rule="evenodd"/>
        <path id="Path_497" data-name="Path 497" d="M161.665,294.651l6.368,26.172a1.492,1.492,0,0,1-1.458,1.842l-12.077.267a1.492,1.492,0,0,1-1.454-1.047h0l-8.617-27.407a1.494,1.494,0,0,1,.108-1.147l23.319-50.775L148.54,183.663a1.494,1.494,0,0,1,2.756-1.133l34.879,59.262a1.487,1.487,0,0,1,.06,1.395l.005,0-24.575,51.462Zm3.03,25.073-6.03-24.785a1.485,1.485,0,0,1,.073-1.1L183.2,242.614,155.687,195.87l15.186,46.312h0a1.485,1.485,0,0,1-.061,1.08l-23.361,50.868,8.11,25.795Z" fill="#1a1818" fill-rule="evenodd"/>
        <path id="Path_498" data-name="Path 498" d="M234.392,353.136l31.142-28.563,10.567.027,63.381,58.365.009,9.712-31.142,28.564-10.567-.028L234.4,362.847Z" fill="#fff28b" fill-rule="evenodd"/>
        <g id="Group_30" data-name="Group 30">
          <path id="Path_499" data-name="Path 499" d="M233.381,352.036l31.142-28.563a1.488,1.488,0,0,1,1.109-.391l10.47.027a1.482,1.482,0,0,1,1.009.394l0,0,63.381,58.364a1.494,1.494,0,0,1,.479,1.188l.01,9.623a1.491,1.491,0,0,1-.481,1.1v0l-31.142,28.564a1.492,1.492,0,0,1-1.109.391l-10.47-.028a1.482,1.482,0,0,1-1.009-.394l0,0L233.39,363.946a1.491,1.491,0,0,1-.48-1.188l-.008-9.622a1.485,1.485,0,0,1,.481-1.1l0,0Zm32.737-25.971L235.884,353.8l.008,8.393,62.478,57.534,9.4.025L338,392.017l-.009-8.394-62.478-57.534-9.4-.024Zm-.486-2.983,1,.479a1.489,1.489,0,0,0-1-.479Zm42.62,99.648-1-.479A1.489,1.489,0,0,0,308.252,422.73Z" fill="#1a1818" fill-rule="evenodd"/>
        </g>
        <path id="Path_500" data-name="Path 500" d="M244.083,356.312l8.163-7.487,3.526.009,3.364,3.1,0,3.24-8.163,7.487-3.526-.009-3.364-3.1Z" fill="#ffffff" fill-rule="evenodd"/>
        <path id="Path_501" data-name="Path 501" d="M243.072,355.213l8.163-7.486a1.488,1.488,0,0,1,1.1-.392l3.434.009a1.484,1.484,0,0,1,1.01.394l0,0,3.364,3.1a1.492,1.492,0,0,1,.479,1.187l0,3.153a1.489,1.489,0,0,1-.481,1.1h0l-8.164,7.487a1.488,1.488,0,0,1-1.1.392l-3.434-.009a1.484,1.484,0,0,1-1.009-.394l0,0-3.364-3.1a1.493,1.493,0,0,1-.479-1.187l0-3.153a1.487,1.487,0,0,1,.481-1.1l0,0Zm9.757-4.9-7.254,6.653,0,1.924,2.461,2.266,2.356.006,7.254-6.653,0-1.924-2.461-2.266Z" fill="#1a1818" fill-rule="evenodd"/>
      </g>
    </g>
  </g>
</svg>