<svg width="32" height="32" viewBox="0 0 32 32" fill="none" xmlns="http://www.w3.org/2000/svg">
<path d="M31.1843 14.5946L17.4053 0.816072C16.6123 0.0225723 15.3253 0.0225723 14.531 0.816072L11.67 3.67757L15.2995 7.30707C16.1433 7.02232 17.1103 7.21332 17.7825 7.88557C18.4583 8.56207 18.6478 9.53732 18.356 10.3838L21.854 13.8821C22.7003 13.5903 23.677 13.7788 24.3525 14.4558C25.2975 15.4001 25.2975 16.9308 24.3525 17.8756C24.1279 18.1003 23.8613 18.2785 23.5678 18.4001C23.2744 18.5217 22.9598 18.5843 22.6421 18.5843C22.3245 18.5843 22.0099 18.5217 21.7164 18.4001C21.423 18.2785 21.1563 18.1003 20.9318 17.8756C20.5944 17.538 20.3644 17.1081 20.2707 16.6401C20.1771 16.172 20.224 15.6868 20.4055 15.2453L17.1435 11.9833L17.143 20.5686C17.3797 20.6851 17.5958 20.8395 17.7828 21.0256C18.7273 21.9698 18.7273 23.5001 17.7828 24.4463C16.838 25.3906 15.3068 25.3906 14.363 24.4463C13.4185 23.5003 13.4185 21.9701 14.363 21.0256C14.5893 20.7989 14.8584 20.6196 15.1548 20.4981V11.8333C14.8582 11.7121 14.589 11.5327 14.363 11.3056C13.6475 10.5906 13.4753 9.54057 13.8423 8.66157L10.264 5.08332L0.816003 14.5308C0.434833 14.9121 0.220703 15.4292 0.220703 15.9683C0.220703 16.5075 0.434833 17.0245 0.816003 17.4058L14.5953 31.1843C15.3888 31.9778 16.6753 31.9778 17.47 31.1843L31.1845 17.4698C31.5656 17.0884 31.7796 16.5713 31.7796 16.0321C31.7795 15.493 31.5654 14.9759 31.1843 14.5946V14.5946Z" fill="black"/>
</svg>
