<svg width="102" height="25" viewBox="0 0 102 25" fill="none" xmlns="http://www.w3.org/2000/svg">
<path d="M0.814 16.928C0.814 15.6813 1.06333 14.5887 1.562 13.65C2.07533 12.6967 2.77933 11.9633 3.674 11.45C4.56867 10.9367 5.59533 10.68 6.754 10.68C8.22067 10.68 9.43067 11.032 10.384 11.736C11.352 12.4253 12.0047 13.4153 12.342 14.706H9.636C9.416 14.1047 9.064 13.6353 8.58 13.298C8.096 12.9607 7.48733 12.792 6.754 12.792C5.72733 12.792 4.906 13.1587 4.29 13.892C3.68867 14.6107 3.388 15.6227 3.388 16.928C3.388 18.2333 3.68867 19.2527 4.29 19.986C4.906 20.7193 5.72733 21.086 6.754 21.086C8.206 21.086 9.16667 20.448 9.636 19.172H12.342C11.99 20.404 11.33 21.3867 10.362 22.12C9.394 22.8387 8.19133 23.198 6.754 23.198C5.59533 23.198 4.56867 22.9413 3.674 22.428C2.77933 21.9 2.07533 21.1667 1.562 20.228C1.06333 19.2747 0.814 18.1747 0.814 16.928ZM14.0054 16.884C14.0054 15.6667 14.2547 14.5887 14.7534 13.65C15.2667 12.7113 15.9561 11.9853 16.8214 11.472C17.7014 10.944 18.6694 10.68 19.7254 10.68C20.6787 10.68 21.5074 10.8707 22.2114 11.252C22.9301 11.6187 23.5021 12.0807 23.9274 12.638V10.878H26.4574V23H23.9274V21.196C23.5021 21.768 22.9227 22.2447 22.1894 22.626C21.4561 23.0073 20.6201 23.198 19.6814 23.198C18.6401 23.198 17.6867 22.934 16.8214 22.406C15.9561 21.8633 15.2667 21.1153 14.7534 20.162C14.2547 19.194 14.0054 18.1013 14.0054 16.884ZM23.9274 16.928C23.9274 16.092 23.7514 15.366 23.3994 14.75C23.0621 14.134 22.6147 13.6647 22.0574 13.342C21.5001 13.0193 20.8987 12.858 20.2534 12.858C19.6081 12.858 19.0067 13.0193 18.4494 13.342C17.8921 13.65 17.4374 14.112 17.0854 14.728C16.7481 15.3293 16.5794 16.048 16.5794 16.884C16.5794 17.72 16.7481 18.4533 17.0854 19.084C17.4374 19.7147 17.8921 20.1987 18.4494 20.536C19.0214 20.8587 19.6227 21.02 20.2534 21.02C20.8987 21.02 21.5001 20.8587 22.0574 20.536C22.6147 20.2133 23.0621 19.744 23.3994 19.128C23.7514 18.4973 23.9274 17.764 23.9274 16.928ZM34.8336 12.924H32.5896V23H30.0596V12.924H28.6296V10.878H30.0596V10.02C30.0596 8.62667 30.4262 7.61467 31.1596 6.984C31.9076 6.33867 33.0736 6.016 34.6576 6.016V8.106C33.8949 8.106 33.3596 8.25267 33.0516 8.546C32.7436 8.82467 32.5896 9.316 32.5896 10.02V10.878H34.8336V12.924ZM42.1383 12.924H39.8943V23H37.3643V12.924H35.9343V10.878H37.3643V10.02C37.3643 8.62667 37.7309 7.61467 38.4643 6.984C39.2123 6.33867 40.3783 6.016 41.9623 6.016V8.106C41.1996 8.106 40.6643 8.25267 40.3563 8.546C40.0483 8.82467 39.8943 9.316 39.8943 10.02V10.878H42.1383V12.924ZM55.4709 16.642C55.4709 17.0967 55.4416 17.5073 55.3829 17.874H46.1209C46.1943 18.842 46.5536 19.6193 47.1989 20.206C47.8443 20.7927 48.6363 21.086 49.5749 21.086C50.9243 21.086 51.8776 20.5213 52.4349 19.392H55.1409C54.7743 20.5067 54.1069 21.4233 53.1389 22.142C52.1856 22.846 50.9976 23.198 49.5749 23.198C48.4163 23.198 47.3749 22.9413 46.4509 22.428C45.5416 21.9 44.8229 21.1667 44.2949 20.228C43.7816 19.2747 43.5249 18.1747 43.5249 16.928C43.5249 15.6813 43.7743 14.5887 44.2729 13.65C44.7863 12.6967 45.4976 11.9633 46.4069 11.45C47.3309 10.9367 48.3869 10.68 49.5749 10.68C50.7189 10.68 51.7383 10.9293 52.6329 11.428C53.5276 11.9267 54.2243 12.6307 54.7229 13.54C55.2216 14.4347 55.4709 15.4687 55.4709 16.642ZM52.8529 15.85C52.8383 14.926 52.5083 14.1853 51.8629 13.628C51.2176 13.0707 50.4183 12.792 49.4649 12.792C48.5996 12.792 47.8589 13.0707 47.2429 13.628C46.6269 14.1707 46.2603 14.9113 46.1429 15.85H52.8529ZM59.2151 9.272C58.7604 9.272 58.3791 9.118 58.0711 8.81C57.7631 8.502 57.6091 8.12067 57.6091 7.666C57.6091 7.21133 57.7631 6.83 58.0711 6.522C58.3791 6.214 58.7604 6.06 59.2151 6.06C59.6551 6.06 60.0291 6.214 60.3371 6.522C60.6451 6.83 60.7991 7.21133 60.7991 7.666C60.7991 8.12067 60.6451 8.502 60.3371 8.81C60.0291 9.118 59.6551 9.272 59.2151 9.272ZM60.4471 10.878V23H57.9391V10.878H60.4471ZM69.8558 10.68C70.8092 10.68 71.6598 10.878 72.4078 11.274C73.1705 11.67 73.7645 12.2567 74.1898 13.034C74.6152 13.8113 74.8278 14.75 74.8278 15.85V23H72.3418V16.224C72.3418 15.1387 72.0705 14.31 71.5278 13.738C70.9852 13.1513 70.2445 12.858 69.3058 12.858C68.3672 12.858 67.6192 13.1513 67.0618 13.738C66.5192 14.31 66.2478 15.1387 66.2478 16.224V23H63.7398V10.878H66.2478V12.264C66.6585 11.7653 67.1792 11.3767 67.8098 11.098C68.4552 10.8193 69.1372 10.68 69.8558 10.68ZM89.137 16.642C89.137 17.0967 89.1076 17.5073 89.049 17.874H79.787C79.8603 18.842 80.2196 19.6193 80.865 20.206C81.5103 20.7927 82.3023 21.086 83.241 21.086C84.5903 21.086 85.5436 20.5213 86.101 19.392H88.807C88.4403 20.5067 87.773 21.4233 86.805 22.142C85.8516 22.846 84.6636 23.198 83.241 23.198C82.0823 23.198 81.041 22.9413 80.117 22.428C79.2076 21.9 78.489 21.1667 77.961 20.228C77.4476 19.2747 77.191 18.1747 77.191 16.928C77.191 15.6813 77.4403 14.5887 77.939 13.65C78.4523 12.6967 79.1636 11.9633 80.073 11.45C80.997 10.9367 82.053 10.68 83.241 10.68C84.385 10.68 85.4043 10.9293 86.299 11.428C87.1936 11.9267 87.8903 12.6307 88.389 13.54C88.8876 14.4347 89.137 15.4687 89.137 16.642ZM86.519 15.85C86.5043 14.926 86.1743 14.1853 85.529 13.628C84.8836 13.0707 84.0843 12.792 83.131 12.792C82.2656 12.792 81.525 13.0707 80.909 13.628C80.293 14.1707 79.9263 14.9113 79.809 15.85H86.519Z" fill="black"/>
<path fill-rule="evenodd" clip-rule="evenodd" d="M95 0.0905762C95.5523 0.0905762 96 0.538291 96 1.09058V5.17834L99.4634 2.97434C99.9294 2.67783 100.547 2.81518 100.844 3.28113C101.141 3.74707 101.003 4.36515 100.537 4.66166L96.8627 6.99999L100.537 9.33832C101.003 9.63483 101.141 10.2529 100.844 10.7189C100.547 11.1848 99.9294 11.3222 99.4634 11.0256L96 8.82165V12.9094C96 13.4617 95.5523 13.9094 95 13.9094C94.4477 13.9094 94 13.4617 94 12.9094V8.82169L90.5366 11.0256C90.0707 11.3222 89.4526 11.1848 89.1561 10.7189C88.8596 10.2529 88.9969 9.63483 89.4629 9.33832L93.1374 6.99999L89.4629 4.66166C88.9969 4.36515 88.8596 3.74707 89.1561 3.28113C89.4526 2.81518 90.0707 2.67783 90.5366 2.97434L94 5.1783V1.09058C94 0.538291 94.4477 0.0905762 95 0.0905762Z" fill="#30A0E5"/>
</svg>
