<svg width="16" height="16" viewBox="0 0 16 16" fill="none" xmlns="http://www.w3.org/2000/svg">
<path d="M11.7261 11.5139C11.8242 10.6973 11.7948 10.5774 12.4031 10.7098L12.5575 10.7233C13.0252 10.7446 13.6371 10.6481 13.9966 10.4811C14.7705 10.1219 15.2292 9.52256 14.4663 9.67994C12.7258 10.0391 12.6062 9.44969 12.6062 9.44969C14.4441 6.72281 15.2123 3.26119 14.5491 2.41381C12.7403 0.102686 9.60947 1.19556 9.55709 1.22381L9.54034 1.22694C9.19647 1.15556 8.81159 1.11294 8.37922 1.10594C7.59159 1.09294 6.99397 1.31244 6.54059 1.65619C6.54059 1.65619 0.955219 -0.644939 1.21509 4.55006C1.27034 5.65519 2.79909 12.9123 4.62259 10.7203C5.28909 9.91881 5.93309 9.24106 5.93309 9.24106C6.25284 9.45344 6.63584 9.56194 7.03734 9.52294L7.06847 9.49644C7.05872 9.59594 7.06297 9.69331 7.08084 9.80856C6.61122 10.3334 6.74922 10.4256 5.81009 10.6188C4.85984 10.8146 5.41809 11.1632 5.78247 11.2543C6.22434 11.3648 7.24647 11.5213 7.93722 10.5546L7.90972 10.6648C8.09397 10.8123 8.08159 11.7244 8.10759 12.3761C8.13372 13.0278 8.17734 13.6359 8.31022 13.9946C8.44309 14.3531 8.59984 15.2766 9.83409 15.0121C10.8656 14.7916 11.6542 14.4734 11.7261 11.5139Z" fill="black"/>
<path d="M9.43219 15.657C8.88632 15.657 8.53082 15.4459 8.31494 15.242C7.98907 14.9345 7.85982 14.5384 7.78257 14.3017L7.74919 14.203C7.59369 13.7832 7.54094 13.1789 7.50969 12.4006C7.50494 12.2837 7.50169 12.1634 7.49807 12.0357C7.49544 11.9424 7.49219 11.8252 7.48744 11.7027C7.29078 11.7965 7.08203 11.8625 6.86719 11.8987C6.48232 11.9645 6.06857 11.9432 5.63719 11.8354C5.33282 11.7592 5.01657 11.6015 4.83632 11.3579C4.31094 11.818 3.80982 11.7556 3.53682 11.6645C3.05519 11.5039 2.62419 11.0525 2.21907 10.2849C1.93044 9.73798 1.65132 9.02548 1.38932 8.16698C0.933066 6.67198 0.643191 5.09735 0.617441 4.58035C0.536441 2.96223 0.972066 1.80498 1.91194 1.1411C3.39457 0.0938516 5.64094 0.709727 6.45994 0.989352C7.01019 0.657727 7.65757 0.496352 8.38907 0.507977C8.78194 0.514352 9.15607 0.548852 9.50357 0.610852C9.86607 0.496852 10.5821 0.333227 11.4017 0.343477C12.9118 0.361477 14.1632 0.949977 15.0203 2.04535C15.6321 2.82685 15.3296 4.46798 15.0949 5.37673C14.7647 6.65498 14.1861 8.01448 13.4753 9.19798C13.6683 9.19935 13.9479 9.17623 14.3454 9.0941C15.1297 8.93223 15.3591 9.35273 15.4213 9.54098C15.6707 10.2962 14.5867 10.867 14.2486 11.024C13.8153 11.2251 13.1089 11.3476 12.5304 11.3211L12.5052 11.3195L12.3532 11.3061L12.3382 11.4329L12.3237 11.5567C12.2848 13.0566 12.0706 14.0065 11.6297 14.6341C11.1676 15.2921 10.5253 15.4765 9.95957 15.5977C9.76657 15.639 9.59119 15.657 9.43219 15.657ZM8.28344 10.1981C8.63582 10.4801 8.66669 11.0107 8.69432 12.0024C8.69782 12.1261 8.70107 12.2432 8.70544 12.3526C8.71869 12.6839 8.74982 13.4595 8.87132 13.7872C8.88844 13.8336 8.90382 13.8806 8.92007 13.9305C9.05544 14.345 9.12332 14.5529 9.70869 14.4277C10.2001 14.3224 10.4527 14.2279 10.6504 13.9464C10.9378 13.5371 11.0986 12.7139 11.1281 11.4995L11.7259 11.514L11.1322 11.4427L11.1497 11.2945C11.2066 10.8057 11.2476 10.4527 11.5742 10.2192C11.8363 10.032 12.1349 10.0501 12.3728 10.093C12.1114 9.89548 12.0392 9.66385 12.0199 9.56885L11.9701 9.32323L12.1102 9.11535C12.9173 7.91785 13.5828 6.4461 13.9363 5.07735C14.2996 3.67098 14.1888 2.9241 14.0781 2.78285C12.6119 0.909477 10.0696 1.68298 9.80407 1.77073L9.75919 1.79498L9.53419 1.83685L9.41894 1.81298C9.10119 1.74698 8.74819 1.71048 8.36982 1.70435C7.77532 1.69435 7.29569 1.83485 6.90244 2.13323L6.62957 2.3401L6.31294 2.20973C5.63644 1.9331 3.64944 1.37698 2.60094 2.1196C2.01894 2.53185 1.75382 3.3396 1.81282 4.52048C1.83232 4.91035 2.09719 6.38623 2.53419 7.8176C3.13807 9.79573 3.68682 10.4529 3.91594 10.5292C3.95594 10.5427 4.05969 10.4621 4.16294 10.3381C4.59344 9.82202 5.03922 9.31888 5.49969 8.82935L5.84594 8.46498L6.26457 8.7431C6.43332 8.85523 6.61944 8.91885 6.81057 8.93085L7.80894 8.07935L7.66432 9.55535C7.66107 9.58848 7.65944 9.6336 7.67244 9.71735L7.71594 9.9971L7.52719 10.2081L7.50544 10.2326L8.05394 10.4857L8.28344 10.1981Z" fill="black"/>
<path d="M14.4665 9.68005C12.7258 10.0392 12.6062 9.4498 12.6062 9.4498C14.4441 6.7228 15.2123 3.26105 14.5493 2.41393C12.7406 0.102928 9.60947 1.1958 9.55722 1.22418L9.54034 1.22718C9.19647 1.1558 8.81159 1.1133 8.37897 1.1063C7.59134 1.09343 6.99397 1.3128 6.54059 1.65655C6.54059 1.65655 0.955091 -0.644447 1.21484 4.55043C1.27009 5.65568 2.79884 12.9128 4.62234 10.7208C5.28884 9.9193 5.93272 9.24155 5.93272 9.24155C6.25259 9.45393 6.63547 9.56243 7.03684 9.52343L7.06809 9.49693C7.05834 9.59643 7.06284 9.6938 7.08059 9.80905C6.61084 10.3339 6.74884 10.4261 5.80972 10.6193C4.85947 10.8151 5.41772 11.1637 5.78222 11.2548C6.22397 11.3653 7.24622 11.5218 7.93684 10.5551L7.90922 10.6653C8.09334 10.8128 8.22259 11.6243 8.20097 12.3599C8.17922 13.0956 8.16472 13.6007 8.30984 13.9952C8.45484 14.3897 8.59934 15.2772 9.83384 15.0127C10.8653 14.7917 11.3998 14.2188 11.4743 13.2633C11.5271 12.5839 11.6465 12.6844 11.6541 12.0771L11.75 11.7896C11.8605 10.8687 11.7675 10.5717 12.4031 10.7098L12.5575 10.7233C13.0252 10.7446 13.6373 10.6481 13.9967 10.4811C14.7705 10.1222 15.2293 9.52268 14.4665 9.68005Z" fill="#336791"/>
<path d="M9.49474 15.2884C8.46574 15.2884 8.13974 14.4736 8.00637 14.1403C7.81112 13.6519 7.76899 11.7567 7.81249 10.2024C7.81314 10.1762 7.81896 10.1504 7.82964 10.1265C7.84031 10.1025 7.85561 10.0809 7.87466 10.0629C7.89372 10.0449 7.91615 10.0308 7.94066 10.0215C7.96518 10.0122 7.99129 10.0079 8.01749 10.0087C8.04367 10.0094 8.06946 10.0153 8.09337 10.026C8.11728 10.0366 8.13885 10.0519 8.15684 10.071C8.17484 10.09 8.1889 10.1124 8.19824 10.1369C8.20757 10.1613 8.21199 10.1874 8.21124 10.2136C8.16112 12.0062 8.23224 13.6307 8.37674 13.9922C8.60224 14.5558 8.94424 15.0488 9.91112 14.8417C10.829 14.6448 11.1727 14.2968 11.3259 13.4092C11.4434 12.7281 11.6757 10.7903 11.7044 10.4079C11.7063 10.3818 11.7133 10.3563 11.7251 10.3329C11.7369 10.3095 11.7532 10.2887 11.7731 10.2716C11.7929 10.2545 11.8159 10.2415 11.8408 10.2333C11.8657 10.2251 11.892 10.222 11.9181 10.2239C11.9708 10.2279 12.0198 10.2527 12.0543 10.2928C12.0888 10.3328 12.106 10.385 12.1021 10.4377C12.0722 10.8358 11.841 12.7698 11.719 13.4771C11.5382 14.5254 11.0709 15.0009 9.99474 15.2317C9.81187 15.2708 9.64574 15.2883 9.49474 15.2884ZM3.91524 11.3083C3.8253 11.308 3.73599 11.2932 3.65074 11.2646C2.98237 11.0416 2.34574 9.95307 1.75849 8.02895C1.31149 6.56432 1.02824 5.03557 1.00337 4.5387C0.929742 3.0657 1.30899 2.02357 2.13087 1.44145C3.75674 0.289448 6.49187 1.38645 6.60749 1.4337C6.65647 1.45371 6.6955 1.49235 6.71599 1.54113C6.73648 1.58992 6.73675 1.64484 6.71674 1.69382C6.69674 1.74281 6.65809 1.78183 6.60931 1.80232C6.56052 1.82281 6.5056 1.82308 6.45662 1.80307C6.43024 1.79232 3.80749 0.741573 2.36062 1.76745C1.65787 2.2657 1.33524 3.19145 1.40162 4.51882C1.42249 4.93745 1.68712 6.42945 2.13987 7.91245C2.66412 9.6302 3.26074 10.7141 3.77687 10.8862C3.85787 10.9132 4.10437 10.9953 4.45674 10.5716C4.86767 10.0781 5.29401 9.59757 5.73512 9.13082C5.77203 9.09401 5.82188 9.0731 5.87401 9.07258C5.92614 9.07206 5.9764 9.09197 6.01404 9.12804C6.05168 9.16411 6.0737 9.21348 6.0754 9.26558C6.07709 9.31768 6.05833 9.36838 6.02312 9.40682C6.01712 9.41307 5.41724 10.0402 4.76349 10.8267C4.45387 11.1991 4.15712 11.3083 3.91524 11.3083ZM12.5939 9.6277C12.5577 9.62765 12.5222 9.61777 12.4913 9.59913C12.4603 9.58048 12.4349 9.55377 12.418 9.52184C12.401 9.48991 12.393 9.45397 12.3949 9.41786C12.3968 9.38175 12.4084 9.34682 12.4286 9.31682C14.2865 6.55995 14.9386 3.22882 14.3801 2.51507C13.6771 1.61682 12.6845 1.1477 11.4296 1.12057C10.5005 1.10057 9.76199 1.33782 9.64124 1.3792L9.61087 1.39157C9.48949 1.4297 9.39637 1.3632 9.36124 1.28545C9.34122 1.2409 9.33818 1.19057 9.35271 1.14394C9.36724 1.09731 9.39833 1.05761 9.44012 1.03232C9.44587 1.02895 9.46412 1.0212 9.49374 1.01032L9.49112 1.01107L9.49374 1.0102C9.69887 0.935073 10.4486 0.710198 11.3772 0.720823C12.7657 0.735573 13.9127 1.27095 14.694 2.26932C15.0636 2.7417 15.0645 3.82995 14.6964 5.2552C14.3211 6.70832 13.615 8.26995 12.7592 9.53982C12.721 9.59695 12.658 9.6277 12.5939 9.6277ZM12.6889 10.9039C12.3716 10.9039 12.0872 10.8592 11.917 10.7572C11.742 10.6523 11.7086 10.5098 11.7042 10.4342C11.6565 9.59545 12.1192 9.44945 12.3552 9.38282C12.3224 9.33307 12.2756 9.27457 12.2272 9.2142C12.0896 9.0422 11.9011 8.8067 11.7559 8.45445C11.7331 8.39945 11.6619 8.27157 11.5794 8.12345C11.132 7.3212 10.2011 5.65182 10.7991 4.79695C11.0759 4.40132 11.627 4.24557 12.439 4.33245C12.2001 3.6047 11.0626 1.3282 8.36349 1.28395C7.55174 1.27045 6.88599 1.52007 6.38574 2.0252C5.26574 3.15632 5.30624 5.20295 5.30687 5.22345C5.30756 5.24963 5.30308 5.27569 5.2937 5.30015C5.28432 5.3246 5.27021 5.34696 5.25218 5.36596C5.23416 5.38497 5.21257 5.40023 5.18864 5.41089C5.16471 5.42154 5.13892 5.42738 5.11274 5.42807C5.08656 5.42876 5.0605 5.42429 5.03605 5.41491C5.01159 5.40552 4.98923 5.39142 4.97023 5.37339C4.95122 5.35536 4.93596 5.33377 4.9253 5.30985C4.91465 5.28592 4.90881 5.26013 4.90812 5.23395C4.90562 5.14307 4.86387 2.99532 6.10237 1.74445C6.68199 1.15907 7.44499 0.870073 8.37012 0.885198C10.0969 0.913573 11.2084 1.79145 11.8366 2.52282C12.5215 3.31995 12.8572 4.1992 12.8849 4.4927C12.9055 4.71095 12.7489 4.75457 12.7172 4.76107L12.6452 4.7627C11.8484 4.63507 11.3371 4.7237 11.1257 5.0257C10.6709 5.67582 11.5515 7.25495 11.9275 7.92932C12.0235 8.10132 12.0927 8.2257 12.1245 8.30245C12.248 8.60195 12.4091 8.8032 12.5385 8.96495C12.6524 9.1072 12.751 9.23057 12.7862 9.37532C12.8026 9.40407 13.035 9.74782 14.4139 9.4632C14.7595 9.39195 14.9667 9.45282 15.0301 9.64445C15.1547 10.0213 14.4555 10.4609 14.0684 10.6407C13.7215 10.8019 13.1679 10.9039 12.6889 10.9039ZM12.1019 10.4013C12.1456 10.4454 12.3645 10.5216 12.8177 10.5021C13.2207 10.4848 13.6457 10.3972 13.9007 10.2788C14.2269 10.1273 14.4446 9.95795 14.5574 9.84232L14.4949 9.85382C13.6132 10.0358 12.9896 10.0116 12.6414 9.7817C12.618 9.76623 12.5954 9.7495 12.5739 9.73157C12.5361 9.74645 12.5012 9.7562 12.4764 9.7632C12.2789 9.81857 12.0746 9.87595 12.1019 10.4013ZM6.40662 11.5157C6.18762 11.5157 5.95712 11.4858 5.72174 11.4269C5.47787 11.3659 5.06674 11.1823 5.07299 10.8807C5.08012 10.5423 5.57224 10.4408 5.75749 10.4027C6.42674 10.2648 6.47037 10.2096 6.67949 9.94395C6.74049 9.86657 6.81637 9.7702 6.91987 9.6547C7.07349 9.4827 7.24137 9.39557 7.41887 9.39557C7.54249 9.39557 7.64387 9.43745 7.71087 9.46532C7.92437 9.55382 8.10249 9.76782 8.17574 10.0237C8.24187 10.2546 8.21024 10.4768 8.08699 10.6494C7.68237 11.2161 7.10124 11.5157 6.40662 11.5157ZM5.50387 10.8978C5.56399 10.9443 5.68449 11.0064 5.81862 11.0399C6.02249 11.0909 6.22024 11.1168 6.40674 11.1168C6.97499 11.1168 7.43124 10.8816 7.76262 10.4176C7.83174 10.3208 7.81099 10.1979 7.79249 10.1333C7.75374 9.99795 7.65749 9.87482 7.55837 9.8337C7.50462 9.81145 7.45999 9.79445 7.41899 9.79445C7.39699 9.79445 7.32999 9.79445 7.21724 9.92057C7.13944 10.0081 7.06464 10.0982 6.99299 10.1908C6.73249 10.5216 6.61312 10.6338 5.83812 10.7934C5.64899 10.8322 5.55199 10.8717 5.50387 10.8978ZM7.03749 9.97782C6.98988 9.97775 6.94386 9.96064 6.90776 9.92961C6.87165 9.89857 6.84784 9.85564 6.84062 9.80857C6.83566 9.77547 6.83232 9.74213 6.83062 9.7087C6.32262 9.6992 5.83249 9.4812 5.46037 9.09295C4.98987 8.60207 4.77574 7.92195 4.87299 7.22707C4.97862 6.47245 4.93912 5.80632 4.91787 5.44845C4.91199 5.34895 4.90774 5.27707 4.90799 5.22732C4.90837 5.1642 4.90962 4.99682 5.46912 4.7132C5.66812 4.61232 6.06712 4.43632 6.50299 4.3912C7.22512 4.31657 7.70112 4.6382 7.84362 5.29695C8.22824 7.07545 7.87412 7.86207 7.61549 8.43657C7.56737 8.54357 7.52187 8.64457 7.48549 8.74245L7.45337 8.8287C7.31674 9.19507 7.19862 9.51157 7.23487 9.74795C7.23885 9.77384 7.23769 9.80025 7.23145 9.82569C7.22522 9.85113 7.21404 9.8751 7.19854 9.89621C7.18304 9.91733 7.16354 9.93518 7.14114 9.94876C7.11874 9.96233 7.09388 9.97136 7.06799 9.97532L7.03749 9.97782ZM5.30812 5.28257L5.31587 5.42495C5.33787 5.7967 5.37887 6.48845 5.26787 7.28245C5.18774 7.85557 5.36274 8.41495 5.74824 8.81695C6.05287 9.1347 6.45374 9.31007 6.86574 9.31007H6.87424C6.92037 9.1157 6.99699 8.91045 7.07949 8.68932L7.11137 8.60357C7.15249 8.49307 7.20062 8.38607 7.25162 8.27282C7.50049 7.71982 7.81037 7.03145 7.45349 5.38132C7.38287 5.05445 7.21149 4.86532 6.92987 4.80295C6.35137 4.6752 5.48924 5.11032 5.30812 5.28257ZM6.51187 5.19795C6.50187 5.26845 6.64099 5.4567 6.82249 5.48182C7.00362 5.5072 7.15862 5.35995 7.16849 5.28945C7.17837 5.21895 7.03937 5.1412 6.85787 5.11595C6.67649 5.0907 6.52149 5.12745 6.51187 5.19795ZM6.86412 5.5512L6.81324 5.5477C6.70074 5.53207 6.58699 5.4612 6.50912 5.35795C6.48174 5.3217 6.43712 5.25145 6.44599 5.1887C6.45862 5.0967 6.57087 5.04157 6.74599 5.04157C6.78512 5.04157 6.82587 5.04445 6.86687 5.0502C6.96262 5.06345 7.05149 5.09107 7.11712 5.1277C7.23087 5.1912 7.23924 5.26207 7.23412 5.2987C7.22012 5.40032 7.05849 5.5512 6.86412 5.5512ZM6.57799 5.2097C6.58362 5.2532 6.69137 5.3967 6.83162 5.41607L6.86424 5.41832C6.99374 5.41832 7.09049 5.31645 7.10187 5.28307C7.08987 5.26032 7.00662 5.20382 6.84874 5.18182C6.81475 5.17695 6.78046 5.17448 6.74612 5.17445C6.64462 5.17445 6.59074 5.19732 6.57799 5.2097ZM12.0286 5.05407C12.0385 5.12457 11.8995 5.31282 11.7181 5.33807C11.5369 5.36332 11.3817 5.2162 11.3717 5.1457C11.3622 5.0752 11.5012 4.99732 11.6825 4.9722C11.8637 4.94682 12.0186 4.9837 12.0286 5.05407ZM11.6762 5.37407C11.5017 5.37407 11.3511 5.23832 11.3387 5.1502C11.3244 5.04445 11.4985 4.96407 11.6777 4.9392C11.7172 4.9337 11.7564 4.93095 11.794 4.93095C11.9487 4.93095 12.0512 4.97632 12.0615 5.04957C12.0681 5.09695 12.0317 5.17007 11.9691 5.23607C11.9277 5.27945 11.8409 5.35457 11.7225 5.37095L11.6762 5.37407ZM11.7941 4.99745C11.7596 4.99745 11.7236 5.00007 11.6871 5.00507C11.507 5.0302 11.3995 5.10245 11.4047 5.1412C11.4107 5.18382 11.5257 5.3077 11.6764 5.3077L11.7135 5.30507C11.8119 5.29145 11.8857 5.2272 11.921 5.1902C11.9764 5.13207 11.9984 5.07732 11.9957 5.0587C11.9922 5.03395 11.9257 4.99745 11.7941 4.99745ZM12.2897 9.10282C12.2536 9.10284 12.2181 9.09304 12.1872 9.07445C12.1562 9.05587 12.1308 9.02921 12.1138 8.99732C12.0968 8.96544 12.0888 8.92953 12.0906 8.89344C12.0925 8.85735 12.1041 8.82244 12.1242 8.79245C12.549 8.15807 12.4712 7.5112 12.3961 6.88557C12.364 6.61907 12.331 6.34345 12.3395 6.07895C12.3482 5.80682 12.3829 5.58232 12.4162 5.3652C12.4559 5.10795 12.4934 4.86495 12.4779 4.57645C12.4765 4.5503 12.4802 4.52413 12.4889 4.49943C12.4976 4.47473 12.5111 4.45199 12.5286 4.4325C12.5461 4.41301 12.5672 4.39716 12.5909 4.38584C12.6145 4.37453 12.6401 4.36798 12.6662 4.36657C12.6924 4.36516 12.7186 4.36891 12.7433 4.37762C12.768 4.38632 12.7907 4.3998 12.8102 4.41729C12.8297 4.43479 12.8455 4.45595 12.8568 4.47956C12.8682 4.50318 12.8747 4.5288 12.8761 4.55495C12.8939 4.8847 12.8515 5.1597 12.8105 5.42582C12.7789 5.6312 12.7461 5.84357 12.7382 6.0917C12.7306 6.32595 12.7605 6.5747 12.7921 6.83795C12.8721 7.5032 12.9627 8.2572 12.4557 9.01432C12.4375 9.04159 12.4128 9.06393 12.3838 9.07937C12.3549 9.0948 12.3226 9.10286 12.2897 9.10282Z" fill="white"/>
</svg>
