<svg width="66" height="23" viewBox="0 0 66 23" fill="none" xmlns="http://www.w3.org/2000/svg">
<path d="M3.158 6.638C3.52467 6.022 4.00867 5.54533 4.61 5.208C5.226 4.856 5.952 4.68 6.788 4.68V7.276H6.15C5.16733 7.276 4.41933 7.52533 3.906 8.024C3.40733 8.52267 3.158 9.388 3.158 10.62V17H0.65V4.878H3.158V6.638ZM20.2034 10.642C20.2034 11.0967 20.174 11.5073 20.1154 11.874H10.8534C10.9267 12.842 11.286 13.6193 11.9314 14.206C12.5767 14.7927 13.3687 15.086 14.3074 15.086C15.6567 15.086 16.61 14.5213 17.1674 13.392H19.8734C19.5067 14.5067 18.8394 15.4233 17.8714 16.142C16.918 16.846 15.73 17.198 14.3074 17.198C13.1487 17.198 12.1074 16.9413 11.1834 16.428C10.274 15.9 9.55536 15.1667 9.02736 14.228C8.51403 13.2747 8.25736 12.1747 8.25736 10.928C8.25736 9.68133 8.50669 8.58867 9.00536 7.65C9.51869 6.69667 10.23 5.96333 11.1394 5.45C12.0634 4.93667 13.1194 4.68 14.3074 4.68C15.4514 4.68 16.4707 4.92933 17.3654 5.428C18.26 5.92667 18.9567 6.63067 19.4554 7.54C19.954 8.43467 20.2034 9.46867 20.2034 10.642ZM17.5854 9.85C17.5707 8.926 17.2407 8.18533 16.5954 7.628C15.95 7.07067 15.1507 6.792 14.1974 6.792C13.332 6.792 12.5914 7.07067 11.9754 7.628C11.3594 8.17067 10.9927 8.91133 10.8754 9.85H17.5854ZM21.8355 10.884C21.8355 9.66667 22.0848 8.58867 22.5835 7.65C23.0968 6.71133 23.7862 5.98533 24.6515 5.472C25.5315 4.944 26.5068 4.68 27.5775 4.68C28.5162 4.68 29.3448 4.87067 30.0635 5.252C30.7968 5.63333 31.3615 6.09533 31.7575 6.638V4.878H34.2875V22.764H31.7575V15.24C31.3615 15.7827 30.7895 16.2447 30.0415 16.626C29.2935 17.0073 28.4428 17.198 27.4895 17.198C26.4482 17.198 25.4948 16.934 24.6295 16.406C23.7788 15.8633 23.0968 15.1153 22.5835 14.162C22.0848 13.194 21.8355 12.1013 21.8355 10.884ZM31.7575 10.928C31.7575 10.092 31.5815 9.366 31.2295 8.75C30.8922 8.134 30.4448 7.66467 29.8875 7.342C29.3302 7.01933 28.7288 6.858 28.0835 6.858C27.4382 6.858 26.8368 7.01933 26.2795 7.342C25.7222 7.65 25.2675 8.112 24.9155 8.728C24.5782 9.32933 24.4095 10.048 24.4095 10.884C24.4095 11.72 24.5782 12.4533 24.9155 13.084C25.2675 13.7147 25.7222 14.1987 26.2795 14.536C26.8515 14.8587 27.4528 15.02 28.0835 15.02C28.7288 15.02 29.3302 14.8587 29.8875 14.536C30.4448 14.2133 30.8922 13.744 31.2295 13.128C31.5815 12.4973 31.7575 11.764 31.7575 10.928ZM48.5596 4.878V17H46.0516V15.57C45.6556 16.0687 45.135 16.4647 44.4896 16.758C43.859 17.0367 43.1843 17.176 42.4656 17.176C41.5123 17.176 40.6543 16.978 39.8916 16.582C39.1436 16.186 38.5496 15.5993 38.1096 14.822C37.6843 14.0447 37.4716 13.106 37.4716 12.006V4.878H39.9576V11.632C39.9576 12.7173 40.229 13.5533 40.7716 14.14C41.3143 14.712 42.055 14.998 42.9936 14.998C43.9323 14.998 44.673 14.712 45.2156 14.14C45.773 13.5533 46.0516 12.7173 46.0516 11.632V4.878H48.5596ZM53.1448 3.272C52.6901 3.272 52.3088 3.118 52.0008 2.81C51.6928 2.502 51.5388 2.12067 51.5388 1.666C51.5388 1.21133 51.6928 0.829999 52.0008 0.522C52.3088 0.213999 52.6901 0.0599991 53.1448 0.0599991C53.5848 0.0599991 53.9588 0.213999 54.2668 0.522C54.5748 0.829999 54.7288 1.21133 54.7288 1.666C54.7288 2.12067 54.5748 2.502 54.2668 2.81C53.9588 3.118 53.5848 3.272 53.1448 3.272ZM54.3768 4.878V17H51.8688V4.878H54.3768ZM59.8915 14.954H65.3915V17H56.9875V14.954L62.5095 6.924H56.9875V4.878H65.3915V6.924L59.8915 14.954Z" fill="black"/>
</svg>
